<?xml version="1.0" encoding="UTF-8" standalone="no"?>
<svg
   xmlns:dc="http://purl.org/dc/elements/1.1/"
   xmlns:cc="http://creativecommons.org/ns#"
   xmlns:rdf="http://www.w3.org/1999/02/22-rdf-syntax-ns#"
   xmlns:svg="http://www.w3.org/2000/svg"
   xmlns="http://www.w3.org/2000/svg"
   xmlns:sodipodi="http://sodipodi.sourceforge.net/DTD/sodipodi-0.dtd"
   xmlns:inkscape="http://www.inkscape.org/namespaces/inkscape"
   width="116.21286mm"
   height="31.855829mm"
   viewBox="0 0 116.21286 31.855829"
   version="1.1"
   id="svg8"
   inkscape:version="1.0 (1.0+r73+1)"
   sodipodi:docname="logo.svg">
  <defs
     id="defs2" />
  <sodipodi:namedview
     id="base"
     pagecolor="#262626"
     bordercolor="#666666"
     borderopacity="1.0"
     inkscape:pageopacity="1"
     inkscape:pageshadow="2"
     inkscape:zoom="2.390368"
     inkscape:cx="317.40407"
     inkscape:cy="61.299729"
     inkscape:document-units="mm"
     inkscape:current-layer="layer1"
     showgrid="false"
     showguides="false"
     inkscape:guide-bbox="true"
     inkscape:window-width="1848"
     inkscape:window-height="1016"
     inkscape:window-x="72"
     inkscape:window-y="27"
     inkscape:window-maximized="1"
     inkscape:document-rotation="0"
     fit-margin-top="0"
     fit-margin-left="0"
     fit-margin-right="0"
     fit-margin-bottom="0"
     lock-margins="false">
    <sodipodi:guide
       position="-1.3180739,27.210569"
       orientation="0,1"
       id="guide3810"
       inkscape:locked="false" />
    <sodipodi:guide
       position="-2.5882179,32.172069"
       orientation="1,0"
       id="guide3812"
       inkscape:locked="false" />
    <sodipodi:guide
       position="-1.5363799,29.810399"
       orientation="1,0"
       id="guide3814"
       inkscape:locked="false" />
    <sodipodi:guide
       position="2.8694481,-36.301229"
       orientation="1,0"
       id="guide3816"
       inkscape:locked="false" />
    <sodipodi:guide
       position="-1.5363809,19.8874"
       orientation="0,1"
       id="guide3818"
       inkscape:locked="false" />
    <sodipodi:guide
       position="10.252147,26.575499"
       orientation="1,0"
       id="guide3820"
       inkscape:locked="false" />
    <sodipodi:guide
       position="4.7349581,10.460539"
       orientation="0,1"
       id="guide3822"
       inkscape:locked="false" />
    <sodipodi:guide
       position="29.308081,21.29408"
       orientation="1,0"
       id="guide3824"
       inkscape:locked="false" />
    <sodipodi:guide
       position="28.073156,22.13608"
       orientation="1,0"
       id="guide3826"
       inkscape:locked="false" />
    <sodipodi:guide
       position="45.979575,19.88741"
       orientation="1,0"
       id="guide3828"
       inkscape:locked="false" />
    <sodipodi:guide
       position="44.82885,19.88741"
       orientation="1,0"
       id="guide3830"
       inkscape:locked="false" />
    <sodipodi:guide
       position="32.441136,-15.749778"
       orientation="1,0"
       id="guide3832"
       inkscape:locked="false" />
    <sodipodi:guide
       position="41.938,19.88741"
       orientation="1,0"
       id="guide3834"
       inkscape:locked="false" />
    <sodipodi:guide
       position="47.747764,21.99574"
       orientation="1,0"
       id="guide3836"
       inkscape:locked="false" />
    <sodipodi:guide
       position="48.842354,21.54668"
       orientation="1,0"
       id="guide3838"
       inkscape:locked="false" />
    <sodipodi:guide
       position="51.845474,21.96768"
       orientation="1,0"
       id="guide3840"
       inkscape:locked="false" />
    <sodipodi:guide
       position="62.791405,22.416739"
       orientation="1,0"
       id="guide3842"
       inkscape:locked="false" />
    <sodipodi:guide
       position="63.885995,19.88741"
       orientation="1,0"
       id="guide3844"
       inkscape:locked="false" />
    <sodipodi:guide
       position="73.653135,19.88741"
       orientation="1,0"
       id="guide3846"
       inkscape:locked="false" />
    <sodipodi:guide
       position="76.852715,19.30136"
       orientation="1,0"
       id="guide3848"
       inkscape:locked="false" />
    <sodipodi:guide
       position="77.947305,19.88741"
       orientation="1,0"
       id="guide3850"
       inkscape:locked="false" />
    <sodipodi:guide
       position="78.536705,23.848129"
       orientation="1,0"
       id="guide3852"
       inkscape:locked="false" />
    <sodipodi:guide
       position="79.434835,23.034199"
       orientation="1,0"
       id="guide3854"
       inkscape:locked="false" />
    <sodipodi:guide
       position="82.662475,23.258739"
       orientation="1,0"
       id="guide3856"
       inkscape:locked="false" />
    <sodipodi:guide
       position="91.194685,21.23795"
       orientation="1,0"
       id="guide3858"
       inkscape:locked="false" />
    <sodipodi:guide
       position="77.498245,19.0207"
       orientation="0,1"
       id="guide3860"
       inkscape:locked="false" />
    <sodipodi:guide
       position="-1.5363809,24.746259"
       orientation="0,1"
       id="guide3864"
       inkscape:locked="false" />
    <sodipodi:guide
       position="-5.4943659,17.89804"
       orientation="0.00070955204,0.99999975"
       id="guide3866"
       inkscape:locked="false" />
    <sodipodi:guide
       position="2.8694481,19.8874"
       orientation="1,0"
       id="guide3868"
       inkscape:locked="false" />
    <sodipodi:guide
       position="6.4338918,21.04148"
       orientation="1,0"
       id="guide3870"
       inkscape:locked="false" />
    <sodipodi:guide
       position="56.700975,24.227019"
       orientation="0,1"
       id="guide3895"
       inkscape:locked="false" />
    <sodipodi:guide
       position="54.385485,20.48015"
       orientation="0,1"
       id="guide3897"
       inkscape:locked="false" />
    <sodipodi:guide
       position="52.098074,24.676089"
       orientation="1,0"
       id="guide3899"
       inkscape:locked="false" />
    <sodipodi:guide
       position="59.240995,17.89804"
       orientation="1,0"
       id="guide3901"
       inkscape:locked="false" />
    <sodipodi:guide
       position="58.553365,18.74003"
       orientation="1,0"
       id="guide3903"
       inkscape:locked="false" />
    <sodipodi:guide
       position="56.560645,13.098659"
       orientation="0,1"
       id="guide3909"
       inkscape:locked="false" />
    <sodipodi:guide
       position="67.091105,27.210579"
       orientation="1,0"
       id="guide3915"
       inkscape:locked="false" />
  </sodipodi:namedview>
  <metadata
     id="metadata5">
    <rdf:RDF>
      <cc:Work
         rdf:about="">
        <dc:format>image/svg+xml</dc:format>
        <dc:type
           rdf:resource="http://purl.org/dc/dcmitype/StillImage" />
        <dc:title />
      </cc:Work>
    </rdf:RDF>
  </metadata>
  <g
     inkscape:label="Layer 1"
     inkscape:groupmode="layer"
     id="layer1"
     style="display:inline"
     transform="translate(-52.421537,-68.962461)">
    <path
       style="fill:#ffffff;fill-opacity:1;stroke:#000000;stroke-width:0;stroke-linecap:butt;stroke-linejoin:miter;stroke-miterlimit:4;stroke-dasharray:none;stroke-opacity:1"
       d="m 55.719422,71.220301 v 2.464308 h 1.051838 v 14.285722 h 3.215052 l 1e-6,-7.4375 c 0,0 0.987362,-0.07019 1.389236,0.525919 1.493518,2.215357 3.365982,6.911581 3.365982,6.911581 h 3.818255 c 0,0 -1.93608,-5.382365 -3.818255,-7.437501 -0.386206,-0.421696 -1.451529,-0.914276 -1.451529,-0.914276 0,0 0.830801,-0.69118 1.45153,-1.851696 0.620729,-1.160515 0.832926,-3.038441 1.432511,-3.586099 0.584728,-0.496148 2.385744,-0.287767 2.385744,-0.287767 l -10e-7,-2.672691 c 0,0 -2.890655,-0.18269 -3.832287,0.673596 -2.077218,1.888946 -1.633654,4.970311 -3.510719,6.461036 -0.310827,0.246852 -1.230468,0.188537 -1.230468,0.188537 v -7.323169 z"
       id="path3872"
       inkscape:connector-curvature="0"
       sodipodi:nodetypes="ccccccsccscccccssccc" />
    <path
       style="fill:#ffffff;fill-opacity:1;stroke:#000000;stroke-width:0;stroke-linecap:butt;stroke-linejoin:miter;stroke-miterlimit:4;stroke-dasharray:none;stroke-opacity:1"
       d="m 86.380793,71.220301 v 2.464308 h 1.234927 v 12.221739 h -1.234927 v 2.063983 h 4.322239 V 75.665809 l 3.299335,12.304522 h 2.996745 l 3.246528,-12.423598 v 12.423598 h 4.04157 v -2.02429 h -1.15072 V 73.684609 h 1.15072 V 71.220301 H 98.40818 L 95.490815,82.254683 92.573453,71.220301 Z"
       id="path3893"
       inkscape:connector-curvature="0"
       sodipodi:nodetypes="cccccccccccccccccccccc" />
    <path
       id="path3905"
       style="fill:#ffffff;fill-opacity:1;stroke:#000000;stroke-width:0;stroke-linecap:butt;stroke-linejoin:miter;stroke-miterlimit:4;stroke-dasharray:none;stroke-opacity:1"
       d="m 111.06058,71.20046 c -2.58411,-0.01216 -5.00538,0.01964 -5.00538,0.01964 v 2.464449 h 1.09502 v 14.285949 c 0,0 3.88582,0.04557 6.40943,0.02635 2.52361,-0.01921 3.67688,-0.119855 5.13974,-0.812353 1.82032,-0.861715 2.51156,-2.584312 1.95027,-5.284432 -0.34866,-1.677208 -3.10111,-2.840653 -3.10111,-2.840653 0,0 1.76034,-1.109356 2.14716,-2.105299 0.37821,-0.973779 0.46778,-2.124058 0.0139,-3.115055 -0.51835,-1.131958 -1.211,-2.001239 -2.6665,-2.394169 -0.6516,-0.175907 -3.39848,-0.232273 -5.98258,-0.244429 z m -0.65474,2.989482 c 0,0 2.66826,6e-6 4.71496,0 0.89408,-2e-6 1.74046,0.501819 1.74046,2.020548 0,1.51873 -1.16912,1.720593 -1.5999,1.725993 -1.11037,0.01403 -4.85552,0.01447 -4.85552,0.01447 z m 0,6.342765 h 5.22035 c 1.04331,0 1.92236,0.587273 1.92236,2.470134 0,1.88286 -1.12237,2.329144 -2.11873,2.315104 -1.66351,-0.02344 -5.02398,0 -5.02398,0 z"
       sodipodi:nodetypes="cccccssscscscccssccccssscc" />
    <path
       style="fill:#ffffff;fill-opacity:1;stroke:#000000;stroke-width:0;stroke-linecap:butt;stroke-linejoin:miter;stroke-miterlimit:4;stroke-dasharray:none;stroke-opacity:1"
       d="m 121.09904,71.220301 v 2.464308 h 1.09459 v 14.285722 h 3.20511 l 6.56203,-10.019612 v 10.019612 h 4.29417 V 85.33221 h -1.09459 V 71.220301 h -3.19958 l -6.56203,11.133611 V 71.220301 Z"
       id="path3917"
       inkscape:connector-curvature="0"
       sodipodi:nodetypes="ccccccccccccccc" />
    <path
       style="fill:#ffffff;fill-opacity:1;stroke:#000000;stroke-width:0;stroke-linecap:butt;stroke-linejoin:miter;stroke-miterlimit:4;stroke-dasharray:none;stroke-opacity:1"
       d="m 136.66195,71.220301 v 2.464308 h 1.05184 V 87.97033 h 3.21505 l 1e-5,-7.437499 c 0,0 0.98736,-0.07019 1.38923,0.525919 1.49352,2.215356 3.36598,6.91158 3.36598,6.91158 h 3.81826 c 0,0 -1.93608,-5.382365 -3.81826,-7.4375 -0.3862,-0.421696 -1.45153,-0.914276 -1.45153,-0.914276 0,0 0.83081,-0.69118 1.45153,-1.851696 0.62073,-1.160515 0.83293,-3.038441 1.43252,-3.586099 0.58472,-0.496148 2.38574,-0.287767 2.38574,-0.287767 v -2.672691 c 0,0 -2.89066,-0.18269 -3.83229,0.673596 -2.07722,1.888946 -1.63365,4.970311 -3.51072,6.461036 -0.31082,0.246852 -1.23047,0.188537 -1.23047,0.188537 v -7.323169 z"
       id="path3872-3"
       inkscape:connector-curvature="0"
       sodipodi:nodetypes="ccccccsccscccccssccc" />
    <path
       sodipodi:nodetypes="cscscccssssssssssscscssssssscsccsssssssscsscscsssscsssssccss"
       style="fill:#ffffff;fill-opacity:1;stroke-width:0;stroke-miterlimit:4;stroke-dasharray:none"
       d="m 137.96667,91.946636 c -0.0951,-0.15391 0.0778,-0.59863 0.38431,-0.98827 0.42666,-0.54241 0.47719,-0.75131 0.21563,-0.89139 -0.5488,-0.29392 -22.45817,-0.50019 -53.765405,-0.50617 -15.995164,-0.003 -29.026201,-0.0615 -28.957857,-0.12982 0.06834,-0.0683 10.893108,-0.18749 24.055035,-0.26477 13.161925,-0.0773 31.729367,-0.20349 41.260977,-0.28047 9.53161,-0.077 17.7274,-0.06 18.21285,0.0378 1.10807,0.22317 1.30275,0.69526 0.58337,1.41464 -0.3076,0.3076 -0.48611,0.67764 -0.3967,0.82232 0.22897,0.37048 1.46962,0.10635 6.33902,-1.34953 6.71591,-2.00796 8.08425,-2.34986 10.05417,-2.51216 2.5791,-0.2125 3.40395,0.0662 3.57187,1.20698 0.1389,0.94361 0.73926,1.40792 2.21404,1.71232 1.33587,0.27573 0.58571,0.39276 -0.9331,0.14557 -1.42679,-0.23221 -2.58023,-0.66991 -3.92677,-1.49008 -0.99737,-0.60749 -2.78228,-0.35244 -9.92187,1.41778 -7.16513,1.77654 -8.98957,1.888687 -8.98957,1.65524 z m 22.24091,-4.651422 c -0.37257,-0.559882 -0.78284,-0.727621 -3.27342,-0.56672 -1.78203,0.13658 -3.10535,0.129526 -4.26633,0.42426 -2.49697,0.633901 -1.46846,0.0531 1.45521,-0.94119 4.51732,-1.5362 7.26582,-1.8185 7.66166,-0.78694 0.15578,0.40596 -0.62052,2.675713 -0.93909,2.675713 -0.10567,0 -0.42015,-0.477695 -0.63803,-0.805123 z m -5.44614,-3.575748 c 0,-0.29924 0.33324,-0.86479 0.74052,-1.25677 0.8507,-0.81873 2.27265,-2.69706 2.04177,-2.69706 -0.0853,0 -0.44192,0.18795 -0.79252,0.41767 -0.56674,0.37134 -1.59315,0.743749 -2.40385,0.43739 -0.74214,-0.683575 -0.63388,-1.331335 -0.64425,-2.09182 0,-1.52903 2.90637,-3.7701 4.90802,-3.78451 1.51684,-0.0109 1.93018,1.15926 0.74013,2.09535 -0.7712,0.60663 -1.15961,0.53212 -0.61938,-0.11882 0.30341,-0.36559 0.25611,-0.37916 -0.42237,-0.12121 -1.35959,0.51692 -2.49347,1.34737 -2.89205,2.11814 -0.21422,0.41426 -0.2925,0.81314 -0.17395,0.88641 0.34973,0.21614 2.77106,-1.03267 3.46666,-1.78796 0.63797,-0.69272 1.19627,-0.88326 1.43869,-0.49101 0.24979,0.40416 -3.76827,6.23196 -4.60573,6.68016 -0.68237,0.36519 -0.78169,0.32886 -0.78169,-0.28596 z m 6.75026,0.28497 c -0.37396,0 0.267,-1.23037 0.77017,-1.51549 0.2036,-0.11537 0.79129,-0.823028 1.30598,-1.57256 l 0.9358,-1.36278 -1.16477,0.651 c -0.8971,0.501398 -1.28056,0.58904 -1.66863,0.38134 -0.85608,-0.45815 -1.42503,-1.5666 -1.23895,-2.41378 0.29798,-1.35671 3.22674,-3.43361 4.84193,-3.43361 0.75079,0 1.63905,0.68424 1.63905,1.2626 0,0.36413 -1.04309,1.11865 -1.54648,1.11865 -0.3146,0 -0.31569,-0.0671 -0.007,-0.4453 0.23452,-0.28758 -0.13743,-0.1743 -1.05019,0.31984 -1.45198,0.78606 -2.42314,1.75913 -2.42314,2.42793 0,0.69817 1.38335,0.0237 3.77104,-1.83877 0.53494,-0.41726 0.80653,-0.48989 1.02287,-0.27355 0.50404,0.50404 -3.98673,6.9536 -4.84173,6.9536 -0.10204,0 -0.17814,-0.25912 -0.34567,-0.25912 z"
       id="path67" />
    <path
       style="fill:#ffffff;fill-opacity:1;stroke-width:0;stroke-miterlimit:4;stroke-dasharray:none"
       d="m 76.592038,87.970333 c -0.119627,0.04486 0.320116,-0.33242 0.86063,-0.497203 2.317487,-0.706519 5.279786,-3.812887 6.004768,-6.296804 0.445507,-1.52639 0.525936,-4.771485 0.133317,-5.379019 -0.180857,-0.279856 -0.257471,0.08152 -0.260327,1.227938 -0.0058,2.274135 -0.861948,4.883417 -1.957539,5.965065 -1.412756,1.39478 -3.677118,3.059825 -4.940887,3.633166 -1.246157,0.56535 -3.013916,0.714789 -3.284098,0.277624 -0.09728,-0.157393 0.218527,-0.264376 0.780405,-0.264376 3.873681,0 8.5387,-6.695538 7.676384,-11.017641 -0.199651,-1.000692 -0.205264,-0.991674 -0.526853,0.84665 -0.590031,3.372833 -2.67535,6.998478 -4.025232,6.998478 -0.212407,0 -0.723082,0.239886 -1.134836,0.533081 -1.112666,0.792288 -2.942565,1.569528 -3.710749,1.576122 -0.372077,0.0032 -0.907439,-0.178254 -1.189692,-0.403216 -0.484717,-0.386328 -0.466243,-0.399989 0.332989,-0.246235 0.904543,0.174015 2.92904,-0.560519 3.868983,-1.403756 0.880782,-0.790161 2.455332,-3.31379 2.909716,-4.663578 0.458842,-1.363036 0.605352,-3.986719 0.208942,-3.741724 -0.126306,0.07806 -0.306113,0.62011 -0.39957,1.204552 -0.389471,2.435629 -2.370643,5.817005 -3.415968,5.830229 -0.319766,0.004 -1.04872,0.360952 -1.619898,0.793129 -1.314537,0.994628 -2.822224,1.081471 -3.440895,0.198195 -0.671262,-0.95836 -0.494007,-1.501567 0.204946,-0.628066 0.518995,0.648607 0.732382,0.737436 1.380634,0.574734 1.500235,-0.376536 3.749189,-3.428809 4.202864,-5.704115 0.101481,-0.508924 0.247848,-1.148411 0.325273,-1.421082 0.0909,-0.320112 0.03707,-0.431672 -0.151925,-0.314867 -0.160984,0.0995 -0.292699,0.364094 -0.292699,0.587999 0,0.573379 -0.761187,2.177429 -1.52785,3.219637 -0.477579,0.649227 -0.791807,0.844601 -1.19065,0.740302 -0.30442,-0.07961 -0.841164,0.06898 -1.22496,0.339106 -1.552586,1.092755 -2.689453,0.78136 -2.645069,-0.724501 l 0.02088,-0.708149 0.265536,0.727032 c 0.38816,1.062775 1.182499,0.922318 2.487721,-0.439886 0.809486,-0.844828 1.193176,-1.518898 1.390078,-2.442117 0.34973,-1.639773 0.163781,-1.855842 -0.234819,-0.272856 -0.361963,1.437486 -1.05332,2.136126 -2.189575,2.21264 -1.179781,0.07944 -1.821946,-0.203264 -0.970528,-0.42727 0.781403,-0.205583 1.853603,-1.691689 1.853603,-2.569153 0,-0.816318 -0.459974,-0.786661 -1.373507,0.08857 -1.008654,0.966353 -0.93597,0.380166 0.126514,-1.020321 1.175282,-1.549164 2.345447,-2.564824 4.478614,-3.142245 1.545496,-0.418346 2.623267,-0.553069 5.470711,-0.06479 2.847444,0.488283 5.749095,3.155391 6.315049,6.767169 0.260545,1.662735 -0.0068,3.781218 -0.629151,4.984623 -0.604398,1.168776 -0.920908,1.129734 -0.500531,-0.06175 0.213734,-0.605786 0.380554,-1.473122 0.370714,-1.927412 -0.0178,-0.821701 -0.01932,-0.822555 -0.291108,-0.165043 -0.858751,2.077423 -1.063757,2.412427 -1.606312,2.62488 -0.327943,0.128416 -1.072137,0.730328 -1.653764,1.337583 -0.581627,0.607254 -1.566518,1.405047 -2.188647,1.772873 -1.225992,0.724854 -2.742269,0.754787 -3.091624,0.885795 z"
       id="path83"
       sodipodi:nodetypes="sssscsssssssscsssssccsssscscssssccsssscsscsszscsscsssss" />
    <text
       xml:space="preserve"
       style="font-style:normal;font-weight:normal;font-size:7.70659px;line-height:1.25;font-family:sans-serif;letter-spacing:0px;word-spacing:0px;fill:#000000;fill-opacity:1;stroke:none;stroke-width:0;stroke-miterlimit:4;stroke-dasharray:none"
       x="60.53833"
       y="98.310219"
       id="text876"><tspan
         sodipodi:role="line"
         id="tspan874"
         x="60.53833"
         y="98.310219"
         style="fill:#ffffff;fill-opacity:1;stroke-width:0;stroke-miterlimit:4;stroke-dasharray:none">аудит и консультации</tspan></text>
  </g>
</svg>
